<?xml version="1.0" encoding="UTF-8"?>
<svg id="Layer_2" data-name="Layer 2" xmlns="http://www.w3.org/2000/svg" viewBox="0 0 815 149.66">
  <defs>
    <style>
      .cls-1 {
        fill: #fff;
        stroke-width: 0px;
      }
    </style>
  </defs>
  <g id="Layer_1-2" data-name="Layer 1">
    <g id="logo">
      <path class="cls-1" d="M0,2.66h20.6l2.65,22.23C29.1,10.07,41.77,0,60.68,0c28.17,0,46.32,20.33,46.32,57v2.66c0,35.91-19.47,54.53-46.7,54.53-17.96,0-30.06-8.17-36.3-21.47v56.94H0V2.66ZM82,59.17v-2.29c0-23.49-12.03-35.9-29.02-35.9-18.14,0-29.98,13.94-29.98,35.52v1.91c0,21.19,11.27,34.75,29.4,34.75s29.6-12.22,29.6-33.99Z"/>
      <path class="cls-1" d="M126,2.66h19.98l3.4,26.99c4.4-18.8,16.6-27.99,38.19-27.99h6.43v25h-10.94c-25.92,0-32.06,9.02-32.06,34.02v50.98h-25V2.66Z"/>
      <path class="cls-1" d="M201,59.88v-2.64c0-34.48,21.65-56.53,55.64-56.53,37.6,0,53.36,26.76,53.36,54.45v11.49h-84.31c2.09,17.71,13.1,27.51,31.14,27.51,13.1,0,21.08-5.28,24.88-14.51h26.78c-6.46,21.86-24.12,34.86-52.6,34.86-36.84,0-54.88-21.1-54.88-54.64ZM226.81,46.66h59.28c-1.71-16.72-10.83-27.17-28.31-27.17s-28.31,9.88-30.97,27.17Z"/>
      <polygon class="cls-1" points="458 2.66 458 112.66 434 112.66 434 39.8 429.97 46.62 412.23 69.87 395.59 92.66 390.45 92.66 373.98 69.87 356.26 46.42 353 40.78 353 112.66 329 112.66 329 2.66 352.66 2.66 393.35 57.86 434.24 2.66 458 2.66"/>
      <path class="cls-1" d="M480,2.66h25v109h-25V2.66Z"/>
      <path class="cls-1" d="M528,70.15V2.66h25v60.8c0,17.1,5.31,28.88,22.17,28.88s24.83-13.49,24.83-32.87V2.66h25v109h-20.88l-2.28-20.85c-5.69,14.22-17.46,23.13-35.31,23.13-26.01,0-38.53-16.68-38.53-43.79Z"/>
      <path class="cls-1" d="M776.5.31c-17.67,0-29.83,8.93-35.34,22.8-4.75-14.25-15.77-22.8-34.39-22.8-17.29,0-28.88,8.93-34.58,22.61l-2.28-20.26h-20.9v109h25v-58.52c0-18.81,7.76-31.73,23.85-31.73s22.15,12.35,22.15,27.74v62.51h25v-61.94c0-16.53,6.71-28.31,23-28.31s23,11.59,23,28.69v99.56h24V43.82c.26-27.17-12.85-43.51-38.5-43.51Z"/>
    </g>
  </g>
</svg>